<svg width="415" height="104" viewBox="0 0 415 104" fill="none" xmlns="http://www.w3.org/2000/svg">
<path d="M18.8672 42.1016V51.0078H32.7344C33.3594 51.0078 33.8281 51.112 34.1406 51.3203C34.8177 51.7891 35.5208 52.349 36.25 53C36.9792 53.651 37.7474 54.4323 38.5547 55.3438C38.8151 55.6823 38.9453 55.9557 38.9453 56.1641C38.9453 56.3984 38.8151 56.6589 38.5547 56.9453C37.7474 57.8568 36.9792 58.638 36.25 59.2891C35.5208 59.9401 34.8177 60.5 34.1406 60.9688C33.776 61.1771 33.3073 61.2812 32.7344 61.2812H18.8672V80.9297C18.8672 81.7109 18.6979 82.2578 18.3594 82.5703C18.0469 82.8568 17.5 83 16.7188 83H8.39844C7.61719 83 7.05729 82.8568 6.71875 82.5703C6.40625 82.2578 6.25 81.7109 6.25 80.9297V37.4531C6.25 34.849 6.48438 32.7917 6.95312 31.2812C7.44792 29.7448 8.38542 28.651 9.76562 28C11.1719 27.3229 13.2161 26.9844 15.8984 26.9844H34.3359C34.9609 26.9844 35.4297 27.0885 35.7422 27.2969C36.4193 27.7656 37.1224 28.3255 37.8516 28.9766C38.5807 29.6276 39.349 30.4089 40.1562 31.3203C40.4167 31.6589 40.5469 31.9323 40.5469 32.1406C40.5469 32.375 40.4167 32.6354 40.1562 32.9219C39.349 33.8333 38.5807 34.6146 37.8516 35.2656C37.1224 35.9167 36.4193 36.4766 35.7422 36.9453C35.3776 37.1536 34.9089 37.2578 34.3359 37.2578H23.3203C21.6016 37.2578 20.4297 37.6224 19.8047 38.3516C19.1797 39.0807 18.8672 40.3307 18.8672 42.1016ZM64.8438 83.9766C58.2812 83.9766 53.0859 82.2318 49.2578 78.7422C45.4297 75.2526 43.5156 70.0573 43.5156 63.1562C43.5156 56.0729 45.4948 50.7865 49.4531 47.2969C53.4375 43.7812 58.75 42.0234 65.3906 42.0234C71.7969 42.0234 76.9271 43.7552 80.7812 47.2188C84.6354 50.6562 86.5625 55.7344 86.5625 62.4531C86.5625 69.4583 84.6354 74.7969 80.7812 78.4688C76.9271 82.1406 71.6146 83.9766 64.8438 83.9766ZM65.2344 74.5234C68.099 74.5234 70.2604 73.638 71.7188 71.8672C73.1771 70.0703 73.9062 67.0104 73.9062 62.6875C73.9062 58.5729 73.1641 55.6823 71.6797 54.0156C70.2214 52.3229 68.0469 51.4766 65.1562 51.4766C62.3698 51.4766 60.1693 52.388 58.5547 54.2109C56.9661 56.0078 56.1719 58.9375 56.1719 63C56.1719 67.2448 56.9271 70.2266 58.4375 71.9453C59.974 73.6641 62.2396 74.5234 65.2344 74.5234ZM107.305 50.4219H107.461C109.414 45.0052 112.93 42.2969 118.008 42.2969C118.659 42.2969 119.193 42.3359 119.609 42.4141C120.026 42.4661 120.312 42.5182 120.469 42.5703C120.859 42.7005 121.055 43 121.055 43.4688V52.8828C121.055 53.6901 120.586 53.9115 119.648 53.5469C119.336 53.4167 118.88 53.2865 118.281 53.1562C117.708 53 116.901 52.9219 115.859 52.9219C113.177 52.9219 111.081 53.9115 109.57 55.8906C108.06 57.8438 107.305 60.513 107.305 63.8984V80.9297C107.305 81.7109 107.135 82.2578 106.797 82.5703C106.484 82.8568 105.938 83 105.156 83H97.1094C96.3281 83 95.7682 82.8568 95.4297 82.5703C95.1172 82.2578 94.9609 81.7109 94.9609 80.9297V48.1953C94.9609 47.5703 95.0911 47.0885 95.3516 46.75C95.8984 46.0208 96.5495 45.2786 97.3047 44.5234C98.0859 43.7682 99.0365 42.9609 100.156 42.1016C100.365 41.9453 100.573 41.8411 100.781 41.7891C100.99 41.737 101.172 41.7109 101.328 41.7109C101.693 41.7109 102.057 41.8411 102.422 42.1016C104.583 43.7943 106.094 45.2396 106.953 46.4375C107.188 46.75 107.305 47.1146 107.305 47.5312V50.4219ZM147.148 41.9844C150.534 41.9844 153.372 42.2318 155.664 42.7266C157.982 43.2214 159.922 43.8333 161.484 44.5625C163.047 45.2917 164.414 46.0208 165.586 46.75V96.3594C165.586 96.9844 165.456 97.4661 165.195 97.8047C164.102 99.237 162.5 100.786 160.391 102.453C160.026 102.714 159.701 102.844 159.414 102.844C159.102 102.844 158.776 102.714 158.438 102.453C157.318 101.594 156.367 100.786 155.586 100.031C154.831 99.276 154.18 98.5339 153.633 97.8047C153.372 97.4661 153.242 96.9844 153.242 96.3594V79.0156H153.086C152.513 79.7448 151.771 80.487 150.859 81.2422C149.948 81.9974 148.763 82.6354 147.305 83.1562C145.872 83.6771 144.023 83.9375 141.758 83.9375C137.826 83.9375 134.596 83.0911 132.07 81.3984C129.57 79.6797 127.721 77.3229 126.523 74.3281C125.352 71.3333 124.766 67.9219 124.766 64.0938C124.766 59.901 125.456 56.138 126.836 52.8047C128.216 49.4714 130.534 46.8411 133.789 44.9141C137.044 42.9609 141.497 41.9844 147.148 41.9844ZM146.719 51.4375C143.698 51.4375 141.393 52.4531 139.805 54.4844C138.216 56.5156 137.422 59.6667 137.422 63.9375C137.422 70.6302 140.182 73.9766 145.703 73.9766C147.865 73.9766 149.518 73.5339 150.664 72.6484C151.81 71.763 152.669 70.6432 153.242 69.2891V53.1562C152.669 52.7396 151.862 52.349 150.82 51.9844C149.779 51.6198 148.411 51.4375 146.719 51.4375ZM190.078 83.9766C180.807 83.9766 176.172 78.3646 176.172 67.1406L176.133 47.2969C176.133 46.6719 176.263 46.1901 176.523 45.8516C177.617 44.4193 179.219 42.8698 181.328 41.2031C181.693 40.9427 182.018 40.8125 182.305 40.8125C182.643 40.8125 182.969 40.9427 183.281 41.2031C184.401 42.0625 185.339 42.8698 186.094 43.625C186.875 44.3802 187.539 45.1224 188.086 45.8516C188.346 46.1901 188.477 46.6719 188.477 47.2969V66.0469C188.477 71.6979 190.716 74.5234 195.195 74.5234C197.409 74.5234 199.18 73.7552 200.508 72.2188C201.836 70.6562 202.5 68.5469 202.5 65.8906V47.2969C202.5 46.6719 202.63 46.1901 202.891 45.8516C203.984 44.4193 205.586 42.8698 207.695 41.2031C208.06 40.9427 208.385 40.8125 208.672 40.8125C209.01 40.8125 209.336 40.9427 209.648 41.2031C210.768 42.0625 211.706 42.8698 212.461 43.625C213.242 44.3802 213.906 45.1224 214.453 45.8516C214.714 46.1901 214.844 46.6719 214.844 47.2969V81.2031C214.844 81.6979 214.674 82.1276 214.336 82.4922C213.997 82.8307 213.568 83 213.047 83H207.188C206.771 83 206.393 82.9479 206.055 82.8438C205.742 82.7135 205.443 82.4792 205.156 82.1406L202.734 79.0156H202.461C202.044 79.6146 201.393 80.3047 200.508 81.0859C199.648 81.8672 198.385 82.5443 196.719 83.1172C195.078 83.6901 192.865 83.9766 190.078 83.9766ZM243.789 83.9766C240.43 83.9766 237.604 83.7292 235.312 83.2344C233.021 82.7396 231.094 82.1276 229.531 81.3984C227.969 80.6693 226.602 79.9401 225.43 79.2109V28.0781C225.43 27.4531 225.56 26.9714 225.82 26.6328C226.914 25.2005 228.516 23.651 230.625 21.9844C230.99 21.724 231.315 21.5938 231.602 21.5938C231.94 21.5938 232.266 21.724 232.578 21.9844C233.698 22.8438 234.635 23.651 235.391 24.4062C236.172 25.1615 236.836 25.9036 237.383 26.6328C237.643 26.9714 237.773 27.4531 237.773 28.0781V47.0234H237.93C238.971 45.6953 240.417 44.5365 242.266 43.5469C244.115 42.5312 246.693 42.0234 250 42.0234C253.698 42.0234 256.745 42.8828 259.141 44.6016C261.536 46.2943 263.32 48.638 264.492 51.6328C265.664 54.6016 266.25 58.013 266.25 61.8672C266.25 66.0339 265.56 69.7969 264.18 73.1562C262.799 76.4896 260.469 79.1328 257.188 81.0859C253.932 83.013 249.466 83.9766 243.789 83.9766ZM244.297 74.5234C247.318 74.5234 249.622 73.5208 251.211 71.5156C252.799 69.4844 253.594 66.5938 253.594 62.8438C253.594 59.0417 252.878 56.2812 251.445 54.5625C250.039 52.8438 247.995 51.9844 245.312 51.9844C243.151 51.9844 241.497 52.4271 240.352 53.3125C239.232 54.1979 238.372 55.3177 237.773 56.6719V72.8047C238.346 73.2214 239.154 73.612 240.195 73.9766C241.263 74.3411 242.63 74.5234 244.297 74.5234ZM294.258 83.9766C289.857 83.9766 286.029 83.2734 282.773 81.8672C279.518 80.4349 276.992 78.2214 275.195 75.2266C273.398 72.2318 272.5 68.3646 272.5 63.625C272.5 56.5156 274.323 51.138 277.969 47.4922C281.615 43.8464 286.458 42.0234 292.5 42.0234C296.432 42.0234 299.753 42.7266 302.461 44.1328C305.195 45.5391 307.266 47.4792 308.672 49.9531C310.104 52.4271 310.82 55.2526 310.82 58.4297C310.82 61.5286 310.026 63.6901 308.438 64.9141C306.849 66.138 304.531 66.75 301.484 66.75H284.727C284.935 69.4323 285.911 71.4766 287.656 72.8828C289.427 74.2891 291.823 74.9922 294.844 74.9922C297.24 74.9922 299.154 74.6406 300.586 73.9375C302.044 73.2083 303.06 72.6354 303.633 72.2188C304.128 71.8542 304.688 71.6849 305.312 71.7109C305.807 71.7109 306.51 71.8151 307.422 72.0234C308.359 72.2057 309.284 72.5573 310.195 73.0781C310.846 73.4167 311.172 73.8854 311.172 74.4844C311.172 74.8229 311.107 75.3047 310.977 75.9297C310.898 76.2943 310.768 76.8281 310.586 77.5312C310.404 78.2083 310.169 78.8464 309.883 79.4453C309.727 79.7318 309.479 80.0052 309.141 80.2656C308.62 80.6302 307.773 81.112 306.602 81.7109C305.456 82.3099 303.88 82.8307 301.875 83.2734C299.87 83.7422 297.331 83.9766 294.258 83.9766ZM284.648 58.7422H297.383C298.711 58.7422 299.375 58.1302 299.375 56.9062C299.375 55.0573 298.789 53.5078 297.617 52.2578C296.471 50.9818 294.74 50.3438 292.422 50.3438C289.896 50.3438 288.034 51.151 286.836 52.7656C285.664 54.3802 284.935 56.3724 284.648 58.7422Z" fill="black"/>
<path d="M384.207 50.6233C382.385 51.6607 380.398 52.3777 378.333 52.7433V91.58C380.09 91.238 381.779 90.6108 383.333 89.7233L403.423 78.1267C405.954 76.6595 408.055 74.5542 409.517 72.0209C410.98 69.4876 411.752 66.615 411.757 63.69V40.49C411.746 38.7094 411.448 36.9421 410.873 35.2567L384.207 50.6233Z" fill="#0CAC77"/>
<path d="M371.667 52.7433C369.601 52.3785 367.613 51.6614 365.79 50.6233L339.19 35.0767C338.574 36.8156 338.254 38.6454 338.243 40.49V63.69C338.248 66.615 339.02 69.4876 340.483 72.0209C341.945 74.5541 344.046 76.6595 346.577 78.1267L366.667 89.7233C368.221 90.6108 369.91 91.238 371.667 91.58V52.7433Z" fill="#0CAC77"/>
</svg>
