<svg width="535" height="264" viewBox="0 0 535 264" fill="none" xmlns="http://www.w3.org/2000/svg">
<path d="M78.8672 122.102V131.008H92.7344C93.3594 131.008 93.8281 131.112 94.1406 131.32C94.8177 131.789 95.5208 132.349 96.25 133C96.9792 133.651 97.7474 134.432 98.5547 135.344C98.8151 135.682 98.9453 135.956 98.9453 136.164C98.9453 136.398 98.8151 136.659 98.5547 136.945C97.7474 137.857 96.9792 138.638 96.25 139.289C95.5208 139.94 94.8177 140.5 94.1406 140.969C93.776 141.177 93.3073 141.281 92.7344 141.281H78.8672V160.93C78.8672 161.711 78.6979 162.258 78.3594 162.57C78.0469 162.857 77.5 163 76.7188 163H68.3984C67.6172 163 67.0573 162.857 66.7188 162.57C66.4062 162.258 66.25 161.711 66.25 160.93V117.453C66.25 114.849 66.4844 112.792 66.9531 111.281C67.4479 109.745 68.3854 108.651 69.7656 108C71.1719 107.323 73.2161 106.984 75.8984 106.984H94.3359C94.9609 106.984 95.4297 107.089 95.7422 107.297C96.4193 107.766 97.1224 108.326 97.8516 108.977C98.5807 109.628 99.349 110.409 100.156 111.32C100.417 111.659 100.547 111.932 100.547 112.141C100.547 112.375 100.417 112.635 100.156 112.922C99.349 113.833 98.5807 114.615 97.8516 115.266C97.1224 115.917 96.4193 116.477 95.7422 116.945C95.3776 117.154 94.9089 117.258 94.3359 117.258H83.3203C81.6016 117.258 80.4297 117.622 79.8047 118.352C79.1797 119.081 78.8672 120.331 78.8672 122.102ZM124.844 163.977C118.281 163.977 113.086 162.232 109.258 158.742C105.43 155.253 103.516 150.057 103.516 143.156C103.516 136.073 105.495 130.786 109.453 127.297C113.438 123.781 118.75 122.023 125.391 122.023C131.797 122.023 136.927 123.755 140.781 127.219C144.635 130.656 146.562 135.734 146.562 142.453C146.562 149.458 144.635 154.797 140.781 158.469C136.927 162.141 131.615 163.977 124.844 163.977ZM125.234 154.523C128.099 154.523 130.26 153.638 131.719 151.867C133.177 150.07 133.906 147.01 133.906 142.688C133.906 138.573 133.164 135.682 131.68 134.016C130.221 132.323 128.047 131.477 125.156 131.477C122.37 131.477 120.169 132.388 118.555 134.211C116.966 136.008 116.172 138.938 116.172 143C116.172 147.245 116.927 150.227 118.438 151.945C119.974 153.664 122.24 154.523 125.234 154.523ZM167.305 130.422H167.461C169.414 125.005 172.93 122.297 178.008 122.297C178.659 122.297 179.193 122.336 179.609 122.414C180.026 122.466 180.312 122.518 180.469 122.57C180.859 122.701 181.055 123 181.055 123.469V132.883C181.055 133.69 180.586 133.911 179.648 133.547C179.336 133.417 178.88 133.286 178.281 133.156C177.708 133 176.901 132.922 175.859 132.922C173.177 132.922 171.081 133.911 169.57 135.891C168.06 137.844 167.305 140.513 167.305 143.898V160.93C167.305 161.711 167.135 162.258 166.797 162.57C166.484 162.857 165.938 163 165.156 163H157.109C156.328 163 155.768 162.857 155.43 162.57C155.117 162.258 154.961 161.711 154.961 160.93V128.195C154.961 127.57 155.091 127.089 155.352 126.75C155.898 126.021 156.549 125.279 157.305 124.523C158.086 123.768 159.036 122.961 160.156 122.102C160.365 121.945 160.573 121.841 160.781 121.789C160.99 121.737 161.172 121.711 161.328 121.711C161.693 121.711 162.057 121.841 162.422 122.102C164.583 123.794 166.094 125.24 166.953 126.438C167.188 126.75 167.305 127.115 167.305 127.531V130.422ZM207.148 121.984C210.534 121.984 213.372 122.232 215.664 122.727C217.982 123.221 219.922 123.833 221.484 124.562C223.047 125.292 224.414 126.021 225.586 126.75V176.359C225.586 176.984 225.456 177.466 225.195 177.805C224.102 179.237 222.5 180.786 220.391 182.453C220.026 182.714 219.701 182.844 219.414 182.844C219.102 182.844 218.776 182.714 218.438 182.453C217.318 181.594 216.367 180.786 215.586 180.031C214.831 179.276 214.18 178.534 213.633 177.805C213.372 177.466 213.242 176.984 213.242 176.359V159.016H213.086C212.513 159.745 211.771 160.487 210.859 161.242C209.948 161.997 208.763 162.635 207.305 163.156C205.872 163.677 204.023 163.938 201.758 163.938C197.826 163.938 194.596 163.091 192.07 161.398C189.57 159.68 187.721 157.323 186.523 154.328C185.352 151.333 184.766 147.922 184.766 144.094C184.766 139.901 185.456 136.138 186.836 132.805C188.216 129.471 190.534 126.841 193.789 124.914C197.044 122.961 201.497 121.984 207.148 121.984ZM206.719 131.438C203.698 131.438 201.393 132.453 199.805 134.484C198.216 136.516 197.422 139.667 197.422 143.938C197.422 150.63 200.182 153.977 205.703 153.977C207.865 153.977 209.518 153.534 210.664 152.648C211.81 151.763 212.669 150.643 213.242 149.289V133.156C212.669 132.74 211.862 132.349 210.82 131.984C209.779 131.62 208.411 131.438 206.719 131.438ZM250.078 163.977C240.807 163.977 236.172 158.365 236.172 147.141L236.133 127.297C236.133 126.672 236.263 126.19 236.523 125.852C237.617 124.419 239.219 122.87 241.328 121.203C241.693 120.943 242.018 120.812 242.305 120.812C242.643 120.812 242.969 120.943 243.281 121.203C244.401 122.062 245.339 122.87 246.094 123.625C246.875 124.38 247.539 125.122 248.086 125.852C248.346 126.19 248.477 126.672 248.477 127.297V146.047C248.477 151.698 250.716 154.523 255.195 154.523C257.409 154.523 259.18 153.755 260.508 152.219C261.836 150.656 262.5 148.547 262.5 145.891V127.297C262.5 126.672 262.63 126.19 262.891 125.852C263.984 124.419 265.586 122.87 267.695 121.203C268.06 120.943 268.385 120.812 268.672 120.812C269.01 120.812 269.336 120.943 269.648 121.203C270.768 122.062 271.706 122.87 272.461 123.625C273.242 124.38 273.906 125.122 274.453 125.852C274.714 126.19 274.844 126.672 274.844 127.297V161.203C274.844 161.698 274.674 162.128 274.336 162.492C273.997 162.831 273.568 163 273.047 163H267.188C266.771 163 266.393 162.948 266.055 162.844C265.742 162.714 265.443 162.479 265.156 162.141L262.734 159.016H262.461C262.044 159.615 261.393 160.305 260.508 161.086C259.648 161.867 258.385 162.544 256.719 163.117C255.078 163.69 252.865 163.977 250.078 163.977ZM303.789 163.977C300.43 163.977 297.604 163.729 295.312 163.234C293.021 162.74 291.094 162.128 289.531 161.398C287.969 160.669 286.602 159.94 285.43 159.211V108.078C285.43 107.453 285.56 106.971 285.82 106.633C286.914 105.201 288.516 103.651 290.625 101.984C290.99 101.724 291.315 101.594 291.602 101.594C291.94 101.594 292.266 101.724 292.578 101.984C293.698 102.844 294.635 103.651 295.391 104.406C296.172 105.161 296.836 105.904 297.383 106.633C297.643 106.971 297.773 107.453 297.773 108.078V127.023H297.93C298.971 125.695 300.417 124.536 302.266 123.547C304.115 122.531 306.693 122.023 310 122.023C313.698 122.023 316.745 122.883 319.141 124.602C321.536 126.294 323.32 128.638 324.492 131.633C325.664 134.602 326.25 138.013 326.25 141.867C326.25 146.034 325.56 149.797 324.18 153.156C322.799 156.49 320.469 159.133 317.188 161.086C313.932 163.013 309.466 163.977 303.789 163.977ZM304.297 154.523C307.318 154.523 309.622 153.521 311.211 151.516C312.799 149.484 313.594 146.594 313.594 142.844C313.594 139.042 312.878 136.281 311.445 134.562C310.039 132.844 307.995 131.984 305.312 131.984C303.151 131.984 301.497 132.427 300.352 133.312C299.232 134.198 298.372 135.318 297.773 136.672V152.805C298.346 153.221 299.154 153.612 300.195 153.977C301.263 154.341 302.63 154.523 304.297 154.523ZM354.258 163.977C349.857 163.977 346.029 163.273 342.773 161.867C339.518 160.435 336.992 158.221 335.195 155.227C333.398 152.232 332.5 148.365 332.5 143.625C332.5 136.516 334.323 131.138 337.969 127.492C341.615 123.846 346.458 122.023 352.5 122.023C356.432 122.023 359.753 122.727 362.461 124.133C365.195 125.539 367.266 127.479 368.672 129.953C370.104 132.427 370.82 135.253 370.82 138.43C370.82 141.529 370.026 143.69 368.438 144.914C366.849 146.138 364.531 146.75 361.484 146.75H344.727C344.935 149.432 345.911 151.477 347.656 152.883C349.427 154.289 351.823 154.992 354.844 154.992C357.24 154.992 359.154 154.641 360.586 153.938C362.044 153.208 363.06 152.635 363.633 152.219C364.128 151.854 364.688 151.685 365.312 151.711C365.807 151.711 366.51 151.815 367.422 152.023C368.359 152.206 369.284 152.557 370.195 153.078C370.846 153.417 371.172 153.885 371.172 154.484C371.172 154.823 371.107 155.305 370.977 155.93C370.898 156.294 370.768 156.828 370.586 157.531C370.404 158.208 370.169 158.846 369.883 159.445C369.727 159.732 369.479 160.005 369.141 160.266C368.62 160.63 367.773 161.112 366.602 161.711C365.456 162.31 363.88 162.831 361.875 163.273C359.87 163.742 357.331 163.977 354.258 163.977ZM344.648 138.742H357.383C358.711 138.742 359.375 138.13 359.375 136.906C359.375 135.057 358.789 133.508 357.617 132.258C356.471 130.982 354.74 130.344 352.422 130.344C349.896 130.344 348.034 131.151 346.836 132.766C345.664 134.38 344.935 136.372 344.648 138.742Z" fill="black"/>
<path d="M444.207 130.623C442.385 131.661 440.398 132.378 438.333 132.743V171.58C440.09 171.238 441.779 170.611 443.333 169.723L463.423 158.127C465.954 156.659 468.055 154.554 469.517 152.021C470.98 149.488 471.752 146.615 471.757 143.69V120.49C471.746 118.709 471.448 116.942 470.873 115.257L444.207 130.623Z" fill="#0CAC77"/>
<path d="M431.667 132.743C429.601 132.379 427.613 131.661 425.79 130.623L399.19 115.077C398.574 116.816 398.254 118.645 398.243 120.49V143.69C398.248 146.615 399.02 149.488 400.483 152.021C401.945 154.554 404.046 156.659 406.577 158.127L426.667 169.723C428.221 170.611 429.91 171.238 431.667 171.58V132.743Z" fill="#0CAC77"/>
</svg>
