<svg width="12" height="12" viewBox="0 0 12 12" fill="none" xmlns="http://www.w3.org/2000/svg">
<path d="M7.99655 5.97737L11.5905 2.37973C11.8238 2.11452 11.9474 1.77042 11.9361 1.41735C11.9249 1.06429 11.7796 0.728768 11.5298 0.478987C11.28 0.229207 10.9445 0.0839141 10.5914 0.0726418C10.2384 0.0613694 9.89427 0.184964 9.62906 0.418302L6.03141 4.01224L2.42728 0.407184C2.29819 0.278091 2.14493 0.175688 1.97627 0.105824C1.8076 0.0359589 1.62682 1.36022e-09 1.44425 0C1.26169 -1.36022e-09 1.08091 0.0359589 0.912242 0.105824C0.743574 0.175688 0.590318 0.278091 0.461224 0.407184C0.332131 0.536277 0.229729 0.689533 0.159864 0.858202C0.0899994 1.02687 0.0540405 1.20765 0.0540405 1.39021C0.0540405 1.57278 0.0899994 1.75356 0.159864 1.92222C0.229729 2.09089 0.332131 2.24415 0.461224 2.37324L4.06628 5.97737L0.472343 9.57409C0.331395 9.70009 0.217635 9.85351 0.138023 10.025C0.0584114 10.1965 0.0146218 10.3824 0.00933303 10.5714C0.00404424 10.7603 0.0373675 10.9484 0.107264 11.1241C0.177161 11.2997 0.282162 11.4593 0.415843 11.5929C0.549523 11.7266 0.709072 11.8316 0.884729 11.9015C1.06039 11.9714 1.24846 12.0047 1.43744 11.9995C1.62641 11.9942 1.81233 11.9504 1.9838 11.8708C2.15527 11.7912 2.3087 11.6774 2.4347 11.5364L6.03141 7.94251L9.62443 11.5364C9.88514 11.7972 10.2388 11.9436 10.6075 11.9436C10.9762 11.9436 11.3298 11.7972 11.5905 11.5364C11.8512 11.2757 11.9977 10.9221 11.9977 10.5534C11.9977 10.1847 11.8512 9.8311 11.5905 9.57039L7.99655 5.97737Z" fill="white"/>
</svg>
