<svg width="436" height="124" viewBox="0 0 436 124" fill="none" xmlns="http://www.w3.org/2000/svg">
<path d="M29.3672 52.1016V61.0078H43.2344C43.8594 61.0078 44.3281 61.112 44.6406 61.3203C45.3177 61.7891 46.0208 62.349 46.75 63C47.4792 63.651 48.2474 64.4323 49.0547 65.3438C49.3151 65.6823 49.4453 65.9557 49.4453 66.1641C49.4453 66.3984 49.3151 66.6589 49.0547 66.9453C48.2474 67.8568 47.4792 68.638 46.75 69.2891C46.0208 69.9401 45.3177 70.5 44.6406 70.9688C44.276 71.1771 43.8073 71.2812 43.2344 71.2812H29.3672V90.9297C29.3672 91.7109 29.1979 92.2578 28.8594 92.5703C28.5469 92.8568 28 93 27.2188 93H18.8984C18.1172 93 17.5573 92.8568 17.2188 92.5703C16.9062 92.2578 16.75 91.7109 16.75 90.9297V47.4531C16.75 44.849 16.9844 42.7917 17.4531 41.2812C17.9479 39.7448 18.8854 38.651 20.2656 38C21.6719 37.3229 23.7161 36.9844 26.3984 36.9844H44.8359C45.4609 36.9844 45.9297 37.0885 46.2422 37.2969C46.9193 37.7656 47.6224 38.3255 48.3516 38.9766C49.0807 39.6276 49.849 40.4089 50.6562 41.3203C50.9167 41.6589 51.0469 41.9323 51.0469 42.1406C51.0469 42.375 50.9167 42.6354 50.6562 42.9219C49.849 43.8333 49.0807 44.6146 48.3516 45.2656C47.6224 45.9167 46.9193 46.4766 46.2422 46.9453C45.8776 47.1536 45.4089 47.2578 44.8359 47.2578H33.8203C32.1016 47.2578 30.9297 47.6224 30.3047 48.3516C29.6797 49.0807 29.3672 50.3307 29.3672 52.1016ZM75.3438 93.9766C68.7812 93.9766 63.5859 92.2318 59.7578 88.7422C55.9297 85.2526 54.0156 80.0573 54.0156 73.1562C54.0156 66.0729 55.9948 60.7865 59.9531 57.2969C63.9375 53.7812 69.25 52.0234 75.8906 52.0234C82.2969 52.0234 87.4271 53.7552 91.2812 57.2188C95.1354 60.6562 97.0625 65.7344 97.0625 72.4531C97.0625 79.4583 95.1354 84.7969 91.2812 88.4688C87.4271 92.1406 82.1146 93.9766 75.3438 93.9766ZM75.7344 84.5234C78.599 84.5234 80.7604 83.638 82.2188 81.8672C83.6771 80.0703 84.4062 77.0104 84.4062 72.6875C84.4062 68.5729 83.6641 65.6823 82.1797 64.0156C80.7214 62.3229 78.5469 61.4766 75.6562 61.4766C72.8698 61.4766 70.6693 62.388 69.0547 64.2109C67.4661 66.0078 66.6719 68.9375 66.6719 73C66.6719 77.2448 67.4271 80.2266 68.9375 81.9453C70.474 83.6641 72.7396 84.5234 75.7344 84.5234ZM117.805 60.4219H117.961C119.914 55.0052 123.43 52.2969 128.508 52.2969C129.159 52.2969 129.693 52.3359 130.109 52.4141C130.526 52.4661 130.812 52.5182 130.969 52.5703C131.359 52.7005 131.555 53 131.555 53.4688V62.8828C131.555 63.6901 131.086 63.9115 130.148 63.5469C129.836 63.4167 129.38 63.2865 128.781 63.1562C128.208 63 127.401 62.9219 126.359 62.9219C123.677 62.9219 121.581 63.9115 120.07 65.8906C118.56 67.8438 117.805 70.513 117.805 73.8984V90.9297C117.805 91.7109 117.635 92.2578 117.297 92.5703C116.984 92.8568 116.438 93 115.656 93H107.609C106.828 93 106.268 92.8568 105.93 92.5703C105.617 92.2578 105.461 91.7109 105.461 90.9297V58.1953C105.461 57.5703 105.591 57.0885 105.852 56.75C106.398 56.0208 107.049 55.2786 107.805 54.5234C108.586 53.7682 109.536 52.9609 110.656 52.1016C110.865 51.9453 111.073 51.8411 111.281 51.7891C111.49 51.737 111.672 51.7109 111.828 51.7109C112.193 51.7109 112.557 51.8411 112.922 52.1016C115.083 53.7943 116.594 55.2396 117.453 56.4375C117.688 56.75 117.805 57.1146 117.805 57.5312V60.4219ZM157.648 51.9844C161.034 51.9844 163.872 52.2318 166.164 52.7266C168.482 53.2214 170.422 53.8333 171.984 54.5625C173.547 55.2917 174.914 56.0208 176.086 56.75V106.359C176.086 106.984 175.956 107.466 175.695 107.805C174.602 109.237 173 110.786 170.891 112.453C170.526 112.714 170.201 112.844 169.914 112.844C169.602 112.844 169.276 112.714 168.938 112.453C167.818 111.594 166.867 110.786 166.086 110.031C165.331 109.276 164.68 108.534 164.133 107.805C163.872 107.466 163.742 106.984 163.742 106.359V89.0156H163.586C163.013 89.7448 162.271 90.487 161.359 91.2422C160.448 91.9974 159.263 92.6354 157.805 93.1562C156.372 93.6771 154.523 93.9375 152.258 93.9375C148.326 93.9375 145.096 93.0911 142.57 91.3984C140.07 89.6797 138.221 87.3229 137.023 84.3281C135.852 81.3333 135.266 77.9219 135.266 74.0938C135.266 69.901 135.956 66.138 137.336 62.8047C138.716 59.4714 141.034 56.8411 144.289 54.9141C147.544 52.9609 151.997 51.9844 157.648 51.9844ZM157.219 61.4375C154.198 61.4375 151.893 62.4531 150.305 64.4844C148.716 66.5156 147.922 69.6667 147.922 73.9375C147.922 80.6302 150.682 83.9766 156.203 83.9766C158.365 83.9766 160.018 83.5339 161.164 82.6484C162.31 81.763 163.169 80.6432 163.742 79.2891V63.1562C163.169 62.7396 162.362 62.349 161.32 61.9844C160.279 61.6198 158.911 61.4375 157.219 61.4375ZM200.578 93.9766C191.307 93.9766 186.672 88.3646 186.672 77.1406L186.633 57.2969C186.633 56.6719 186.763 56.1901 187.023 55.8516C188.117 54.4193 189.719 52.8698 191.828 51.2031C192.193 50.9427 192.518 50.8125 192.805 50.8125C193.143 50.8125 193.469 50.9427 193.781 51.2031C194.901 52.0625 195.839 52.8698 196.594 53.625C197.375 54.3802 198.039 55.1224 198.586 55.8516C198.846 56.1901 198.977 56.6719 198.977 57.2969V76.0469C198.977 81.6979 201.216 84.5234 205.695 84.5234C207.909 84.5234 209.68 83.7552 211.008 82.2188C212.336 80.6562 213 78.5469 213 75.8906V57.2969C213 56.6719 213.13 56.1901 213.391 55.8516C214.484 54.4193 216.086 52.8698 218.195 51.2031C218.56 50.9427 218.885 50.8125 219.172 50.8125C219.51 50.8125 219.836 50.9427 220.148 51.2031C221.268 52.0625 222.206 52.8698 222.961 53.625C223.742 54.3802 224.406 55.1224 224.953 55.8516C225.214 56.1901 225.344 56.6719 225.344 57.2969V91.2031C225.344 91.6979 225.174 92.1276 224.836 92.4922C224.497 92.8307 224.068 93 223.547 93H217.688C217.271 93 216.893 92.9479 216.555 92.8438C216.242 92.7135 215.943 92.4792 215.656 92.1406L213.234 89.0156H212.961C212.544 89.6146 211.893 90.3047 211.008 91.0859C210.148 91.8672 208.885 92.5443 207.219 93.1172C205.578 93.6901 203.365 93.9766 200.578 93.9766ZM254.289 93.9766C250.93 93.9766 248.104 93.7292 245.812 93.2344C243.521 92.7396 241.594 92.1276 240.031 91.3984C238.469 90.6693 237.102 89.9401 235.93 89.2109V38.0781C235.93 37.4531 236.06 36.9714 236.32 36.6328C237.414 35.2005 239.016 33.651 241.125 31.9844C241.49 31.724 241.815 31.5938 242.102 31.5938C242.44 31.5938 242.766 31.724 243.078 31.9844C244.198 32.8438 245.135 33.651 245.891 34.4062C246.672 35.1615 247.336 35.9036 247.883 36.6328C248.143 36.9714 248.273 37.4531 248.273 38.0781V57.0234H248.43C249.471 55.6953 250.917 54.5365 252.766 53.5469C254.615 52.5312 257.193 52.0234 260.5 52.0234C264.198 52.0234 267.245 52.8828 269.641 54.6016C272.036 56.2943 273.82 58.638 274.992 61.6328C276.164 64.6016 276.75 68.013 276.75 71.8672C276.75 76.0339 276.06 79.7969 274.68 83.1562C273.299 86.4896 270.969 89.1328 267.688 91.0859C264.432 93.013 259.966 93.9766 254.289 93.9766ZM254.797 84.5234C257.818 84.5234 260.122 83.5208 261.711 81.5156C263.299 79.4844 264.094 76.5938 264.094 72.8438C264.094 69.0417 263.378 66.2812 261.945 64.5625C260.539 62.8438 258.495 61.9844 255.812 61.9844C253.651 61.9844 251.997 62.4271 250.852 63.3125C249.732 64.1979 248.872 65.3177 248.273 66.6719V82.8047C248.846 83.2214 249.654 83.612 250.695 83.9766C251.763 84.3411 253.13 84.5234 254.797 84.5234ZM304.758 93.9766C300.357 93.9766 296.529 93.2734 293.273 91.8672C290.018 90.4349 287.492 88.2214 285.695 85.2266C283.898 82.2318 283 78.3646 283 73.625C283 66.5156 284.823 61.138 288.469 57.4922C292.115 53.8464 296.958 52.0234 303 52.0234C306.932 52.0234 310.253 52.7266 312.961 54.1328C315.695 55.5391 317.766 57.4792 319.172 59.9531C320.604 62.4271 321.32 65.2526 321.32 68.4297C321.32 71.5286 320.526 73.6901 318.938 74.9141C317.349 76.138 315.031 76.75 311.984 76.75H295.227C295.435 79.4323 296.411 81.4766 298.156 82.8828C299.927 84.2891 302.323 84.9922 305.344 84.9922C307.74 84.9922 309.654 84.6406 311.086 83.9375C312.544 83.2083 313.56 82.6354 314.133 82.2188C314.628 81.8542 315.188 81.6849 315.812 81.7109C316.307 81.7109 317.01 81.8151 317.922 82.0234C318.859 82.2057 319.784 82.5573 320.695 83.0781C321.346 83.4167 321.672 83.8854 321.672 84.4844C321.672 84.8229 321.607 85.3047 321.477 85.9297C321.398 86.2943 321.268 86.8281 321.086 87.5312C320.904 88.2083 320.669 88.8464 320.383 89.4453C320.227 89.7318 319.979 90.0052 319.641 90.2656C319.12 90.6302 318.273 91.112 317.102 91.7109C315.956 92.3099 314.38 92.8307 312.375 93.2734C310.37 93.7422 307.831 93.9766 304.758 93.9766ZM295.148 68.7422H307.883C309.211 68.7422 309.875 68.1302 309.875 66.9062C309.875 65.0573 309.289 63.5078 308.117 62.2578C306.971 60.9818 305.24 60.3438 302.922 60.3438C300.396 60.3438 298.534 61.151 297.336 62.7656C296.164 64.3802 295.435 66.3724 295.148 68.7422Z" fill="white"/>
<path d="M394.707 60.6233C392.885 61.6607 390.898 62.3777 388.833 62.7433V101.58C390.59 101.238 392.279 100.611 393.833 99.7233L413.923 88.1267C416.454 86.6595 418.555 84.5542 420.017 82.0209C421.48 79.4876 422.252 76.615 422.257 73.69V50.49C422.246 48.7094 421.948 46.9421 421.373 45.2567L394.707 60.6233Z" fill="white"/>
<path d="M382.167 62.7433C380.101 62.3785 378.113 61.6614 376.29 60.6233L349.69 45.0767C349.074 46.8156 348.754 48.6454 348.743 50.49V73.69C348.748 76.615 349.52 79.4876 350.983 82.0209C352.445 84.5541 354.546 86.6595 357.077 88.1267L377.167 99.7233C378.721 100.611 380.41 101.238 382.167 101.58V62.7433Z" fill="white"/>
</svg>
